# xmcd
# 
# Track frame offsets:
#     150
#     27985
#     42984
#     64721
#     77961
#     94548
#     118422
#     135180
#     154828
#     171947
#     191223
#     209056
#     243549
#     255480
#     282764
# 
# Disc length: 3983
# 
# Revision: 6
# Processed by: cddbd v1.5.2PL0 Copyright (c) Steve Scherf et al.
# Submitted via: fre:ac v1.0.31
# 
DISCID=d90f8d0f
DTITLE=Little Feat - Join The Band
DYEAR=2008
DGENRE=Rock/Pop
TTITLE0=Fat Man In The Bathtub WITH DAVE MATTHEWS and SONNY LANDRETH
TTITLE1=Something In The Water WITH BOB SEGER
TTITLE2=Dixie Chicken WITH VINCE GILL and SONNY LANDRETH
TTITLE3=See You Later Alligator
TTITLE4=Champion Of The World WITH JIMMY BUFFET
TTITLE5=The Weight WITH BELA FLECK
TTITLE6=Don't Ya Just Know It
TTITLE7=Time Loves A Hero WITH JIMMY BUFFET
TTITLE8=Willin' WITH BROOKS and DUNN
TTITLE9=This Land Is Your Land WITH MIKE GORDON
TTITLE10=Oh Atlanta WITH CHRIS ROBINSON
TTITLE11=Spanish MoonWITH CRAIG FULLER and VINCE GILL
TTITLE12=Trouble WITH INARA GEORGE
TTITLE13=Sailin' Shoes  WITH EMMYLOU HARRIS and BELA FLECK
TTITLE14=I Will Play For Gumbo WITH SAM BUSH
EXTD=
EXTT0=
EXTT1=
EXTT2=
EXTT3=
EXTT4=
EXTT5=
EXTT6=
EXTT7=
EXTT8=
EXTT9=
EXTT10=
EXTT11=
EXTT12=
EXTT13=
EXTT14=
PLAYORDER=
